<svg xmlns="http://www.w3.org/2000/svg" viewBox="0 0 360 360"><defs><style>.cls-1{isolation:isolate;}.cls-2,.cls-4{fill:#b5d0e1;}.cls-3,.cls-4{mix-blend-mode:multiply;}.cls-5{fill:#231f20;}.cls-6{fill:#fff;}.cls-7{fill:#1dbbee;}.cls-8{fill:#f4364c;}.cls-9{fill:#f77382;}.cls-10{fill:#a5e4f8;}</style></defs><title>consultant_webpage_open_icon_3C_191016</title><g class="cls-1"><g id="Background"><circle id="_27.62.111" data-name="27.62.111" class="cls-2" cx="180" cy="180" r="180"/></g><g id="Layer_4" data-name="Layer 4"><g class="cls-3"><path class="cls-2" d="M73.88,162.05c0,.83-.46,1-.81,1.33a4.64,4.64,0,0,1-2.67,1.11c-2.12.26-4.19-.23-6.27-.37-1.82-.12-3.63-.53-5.44-.77-1-.12-1.92-.15-2.88-.22a9.58,9.58,0,0,1-1.13-.12,2.3,2.3,0,0,1-1.83-2.13A2.32,2.32,0,0,1,53,160c.05-.18.22-.31.31-.49.66-1.26.66-1.25,1.8-.92a11.36,11.36,0,0,0,1.31.25c3,.49,6,1,9,1.47,2.49.43,5,.9,7.45,1.38A7.09,7.09,0,0,1,73.88,162.05Z"/><path class="cls-2" d="M58.64,208.44c1-1.32,2-2.64,3.05-3.85,1.61-1.78,2.92-3.76,4.84-5.33.89-.73,1.83-1.42,2.72-2.14a1.56,1.56,0,0,1,1.08-.26,7,7,0,0,1,3,.8c.79.36.81.32,1.31,1.21a2.68,2.68,0,0,1-.63.49,17.24,17.24,0,0,0-4.47,2.9c-1.37,1.13-2.71,2.3-4.08,3.43a43.11,43.11,0,0,1-3.5,2.77,2.77,2.77,0,0,1-2.38.32C59.28,208.69,59,208.56,58.64,208.44Z"/></g><g class="cls-3"><path class="cls-2" d="M303.41,226.84c-.14.11-.17.15-.19.15-1.28-.49-2.64-.51-3.87-1.4a30.5,30.5,0,0,0-3.4-1.88c-.06,0-.12-.1-.17-.09-1.47.24-2.65-1-3.94-1.59-1.65-.77-3.28-1.63-4.9-2.54a18.24,18.24,0,0,1-1.74-1.36,21.64,21.64,0,0,0-2.29-1.6,10.66,10.66,0,0,1-3.21-3.16c-.51-.69-.42-1.66-.6-2.73a5.83,5.83,0,0,1,1.23.35c4.44,2.42,8.89,4.76,13.29,7.33,2.93,1.71,5.76,3.74,8.63,5.63a1.68,1.68,0,0,1,.95,1.92A3,3,0,0,0,303.41,226.84Z"/><path class="cls-2" d="M285.55,188.23c.51,0,.79,0,1.07,0a65.63,65.63,0,0,1,9.34,1.4c3,.81,6,1.44,8.92,2.26,1.47.41,2.88,1.1,4.33,1.63a3.5,3.5,0,0,1,2.13,2.79,10.73,10.73,0,0,1-1.81,0c-1.3-.25-2.58-.62-3.88-.9a12.14,12.14,0,0,0-1.34-.1,7.24,7.24,0,0,1-1.33-.18A71.81,71.81,0,0,0,292,193a28.52,28.52,0,0,1-3.2-.43,14,14,0,0,1-2-1c-.8-.35-.88-1.08-1-1.82C285.76,189.27,285.67,188.85,285.55,188.23Z"/><path class="cls-2" d="M310,157.21c-1,.4-1.79.73-2.6,1a1.57,1.57,0,0,1-.73.07c-1.17-.16-2.35,0-3.54-.26a12,12,0,0,0-3.43.17c-1.93.18-3.86.48-5.8.55a6.86,6.86,0,0,1-2.38-.62,3.89,3.89,0,0,1-1.13-2.47.83.83,0,0,1,.7-.8,25.47,25.47,0,0,1,7.26-.91c2.89.19,5.78.44,8.67.67,1.08.08,2.06.29,2.43,1.6A4.38,4.38,0,0,0,310,157.21Z"/><path class="cls-2" d="M181.48,256.57l4-1.16,1.27,1.21a27.86,27.86,0,0,0-.81,6.86c-.06,2.09,0,4.17-.07,6.26s-.11,3.87-.17,5.81c0,.17,0,.35,0,.52.1,1.69.1,1.69-2.11,2.36a3.09,3.09,0,0,1-1.21-2.24c-.08-.78-.33-1.55-.47-2.32q-.37-2-.69-4a7.51,7.51,0,0,1,0-.94,3.29,3.29,0,0,0-.06-1.14c-.73-1.78-.27-3.59-.46-5.38C180.45,260.44,181.37,258.63,181.48,256.57Z"/><path class="cls-2" d="M89.34,269.38a34,34,0,0,1,3-8c.19-.36.3-.74.51-1.09.86-1.43,1.71-2.86,2.65-4.26a16.77,16.77,0,0,1,1.59-1.78l1.09-1.17a9.36,9.36,0,0,1,3.52.12,1.3,1.3,0,0,1,1.09.89c-.75.79-1.54,1.57-2.26,2.38a37.87,37.87,0,0,0-5.11,7,32.87,32.87,0,0,1-3.06,5.14,1.69,1.69,0,0,1-1.59.72Z"/><path class="cls-2" d="M145.46,259.38c-.79.62-1.17,1.28-.89,2.11a1,1,0,0,1,0,.72c-.66,1.41-.48,2.88-.59,4.33-.07.9-.2,1.8-.3,2.69s-.2,1.65-.3,2.48c-.14,1.16-.73,1.73-2.18,2.06-.39.09-.8.12-1.4.2,0-.52,0-1-.08-1.44-.07-.82-.17-1.65-.22-2.47-.07-1.24,0-2.49-.17-3.72s.08-2.53-.31-3.81a6.54,6.54,0,0,1,.19-2.89c0-.23.48-.5.81-.61a26.8,26.8,0,0,1,2.81-.74C144.38,258,144.68,258.12,145.46,259.38Z"/><path class="cls-2" d="M232.93,276.34a3.52,3.52,0,0,1-.87-.45,3.85,3.85,0,0,1-.82-1.07,59,59,0,0,0-5.43-8.22,18.11,18.11,0,0,1-1.27-2.07c-.57-1-1.09-2.11-1.64-3.17-.19-.36,0-.64.35-.8a20.5,20.5,0,0,1,2.3-.86,1,1,0,0,1,1.4.5,27.81,27.81,0,0,0,1.25,2.54c1.08,1.88,2.24,3.74,3.3,5.62.88,1.56,1.67,3.16,2.51,4.74.34.64.75,1.26,1,1.92.34.83.15,1-1,1.14C233.71,276.19,233.41,276.26,232.93,276.34Z"/><path class="cls-2" d="M267,244.12a13.68,13.68,0,0,1,1.31.5c2.92,1.48,5.8,3,8.76,4.44q3.95,1.91,8,3.61a2.7,2.7,0,0,1,1.76,2.46,32.63,32.63,0,0,1-5.21-1.44c-1.24-.53-2.53-1-3.77-1.55-1.6-.71-3.16-1.48-4.75-2.21a39.15,39.15,0,0,1-5.17-3.12A3.38,3.38,0,0,1,267,244.12Z"/></g><g class="cls-3"><path class="cls-2" d="M228.19,118.74l-1.22-2c2.25-3.26,3.86-7,6.53-9.93a30.64,30.64,0,0,1,6.68-5.89c1.18-.71,2.47-1.19,3.71-1.79a.83.83,0,0,1,1.07.18l.08.08c.28.4,1.2.24,1,1s-.33,1.58-1.22,1.9A8.77,8.77,0,0,0,243,103.3c-.42.28-.83.56-.76,1.27,0,.23-.33.54-.54.76-1.38,1.41-2.79,2.78-4.14,4.22a23.2,23.2,0,0,0-2.82,4.48c-.7,1.22-1.32,2.49-2,3.73a1.94,1.94,0,0,1-2,1.27Z"/><path class="cls-2" d="M293.79,100.06c-.08.93,0,1.31.61,1.58,1.36.6,1.44,1.62.31,2.67-.52.49-1.07.93-1.59,1.42-3.67,3.37-7.35,6.72-11,10.11-1.74,1.61-3.43,3.28-5.14,4.93-.79.76-3.09.83-3.66,0a14.14,14.14,0,0,1-1-2.31s0-.14,0-.2c1.23-1.29,2.43-2.63,3.72-3.84,2-1.88,4-3.69,6.1-5.49,1.59-1.39,3.22-2.72,4.82-4.09.47-.4.88-.87,1.35-1.26,1.19-1,2.36-2,3.61-2.91A6.79,6.79,0,0,1,293.79,100.06Z"/><path class="cls-2" d="M99.2,122.45c-1-.61-2.06-1.14-3-1.77q-5.79-3.76-11.54-7.58a5.57,5.57,0,0,1-2.45-2.88,2.45,2.45,0,0,1,.48-2.61c.46-.51,1-1.25,1.49-1.32s1,.71,1.51,1.09c3.4,2.55,6.82,5.09,10.21,7.66,2.13,1.61,4.22,3.27,6.32,4.93a6.4,6.4,0,0,1,1,1,1.11,1.11,0,0,1,.31.73c0,.18-.4.35-.62.38C101.65,122.25,100.43,122.34,99.2,122.45Z"/><path class="cls-2" d="M190.95,102c-.24,1.73-.49,3.45-.72,5.18-.37,2.76-.7,5.54-1.12,8.29a4.94,4.94,0,0,1-.72,1.73.9.9,0,0,1-.82.31c-1-.24-2.36-2.35-2.32-3.51.06-1.78.08-3.57.26-5.35a50,50,0,0,1,1.57-9.09c.17-.59.43-1,.91-.87a7.69,7.69,0,0,1,2.39.84c.31.19.4.92.49,1.43a3.52,3.52,0,0,1-.11,1Z"/><path class="cls-2" d="M126.68,99.07c.48-.52,1.09-.24,1.63-.11a4.64,4.64,0,0,1,2,.78,3.61,3.61,0,0,1,.93,1.89c.49,2.42.86,4.87,1.29,7.3.35,2,.71,4,1.06,6a2.87,2.87,0,0,1,.11.74c0,.46.27,1.05-.29,1.34s-.65-.34-1-.58a13.65,13.65,0,0,0-1.55-.9c-.46-1.57-1-3.4-1.53-5.25q-.69-2.49-1.29-5C127.59,103.23,127.15,101.16,126.68,99.07Z"/></g></g><g id="Artwork"><path class="cls-4" d="M278.22,149.49a19,19,0,0,0-.87-6.07c-.44-1.43-.94-2.84-1.5-4.21-.48-1.17-1.06-2.29-1.63-3.42-.16-.33-.52-.55-.62-.89-.57-1.86-1.93-2.25-3.42-2.42a15.85,15.85,0,0,1-1.58-.08c-3.24-.71-6.51-.23-9.77-.35a45.35,45.35,0,0,0-6.33.43c-3,.31-5.94,0-8.92.35a54.68,54.68,0,0,1-6.31.46c-1.1,0-2.2.07-3.29.15s-2,.21-3,.29l-6.6.5c-1.63.12-3.27.28-4.9.34-2.39.09-4.77.08-7.16.14-1,0-2,.2-3,.17-1.63,0-3.25-.25-4.88-.27-2.74,0-5.49,0-8.23,0-3.13,0-6.25,0-9.38,0-.77,0-1.54.21-2.3.17-3.21-.14-6.43-.33-9.64-.49a18.34,18.34,0,0,0-2.6,0c-3.3.31-6.62,0-9.93.46-2,.27-4,0-6,.07-2.44.11-4.88.36-7.32.55a4,4,0,0,1-1.15,0c-2-.44-3.93-.08-5.89,0-3.41.13-6.81.39-10.22.58-1.33.08-2.67.09-4,.19-.52,0-1,.3-1.55.3-1.83,0-3.65-.05-5.48-.09l-1.59-.06c-1.19,0-2.39-.11-3.58,0-1.63.1-3.26.29-4.88.49q-4,.49-8,1a14.23,14.23,0,0,0-2.54.55c-1.65.55-3.27,1.19-4.9,1.81a.84.84,0,0,0-.47.36A2.19,2.19,0,0,1,92.83,142c-.14,0-.34.26-.39.44-.58,1.89-1.17,3.78-1.67,5.7-.27,1-.31,2.15-.5,3.22-.49,2.71-1.19,5.39-1.46,8.12-.38,3.89-.46,7.82-.64,11.74-.07,1.62-.07,3.24-.08,4.86,0,3.8,0,7.6,0,11.41,0,3.2.11,6.4.16,9.61,0,2.29,0,4.58.12,6.86.16,3.42.4,6.84.65,10.26a31.35,31.35,0,0,0,.62,6c.91,3.28,1.68,6.62,3.42,9.6s3.61,5.84,6.44,7.67a16.71,16.71,0,0,0,3,2c2.17.79,4.3,1.91,6.67,1.78.29,0,.58.07.86.07,2.4,0,4.81,0,7.21-.05s4.51-.3,6.77-.37c1,0,2,.16,3,.2,1.53.06,3.06.11,4.59.12,2.25,0,4.5,0,6.75,0,2.5,0,5,0,7.5,0,3.41.08,6.82.23,10.23.35a23.07,23.07,0,0,0,3.9.11c3.94-.54,7.88-.24,11.82-.29,1.63,0,3.27-.08,4.9-.08,1.05,0,2.1,0,3.16.07,1.82,0,3.64.07,5.46.13s3.75.13,5.63.2a36.49,36.49,0,0,0,5,.11c2.29-.24,4.57,0,6.86-.16s4.81.07,7.21,0c1.87-.06,3.73-.33,5.6-.48.86-.07,1.72,0,2.58-.08,1.29-.09,2.58-.33,3.87-.33a27.78,27.78,0,0,0,6.76-.63,2.49,2.49,0,0,0,1.07-.41,2.39,2.39,0,0,1,2.05-.51,9.84,9.84,0,0,0,1.73.11c2-.12,3.94-.25,5.91-.44a36.59,36.59,0,0,0,8.49-1.76c.89-.3,12.14-2,14-3.9,1.34-1.32,2.67-2.65,4-4a1.06,1.06,0,0,1,.51-.28c.74-.14,1.13-.72,1.54-1.36a31.29,31.29,0,0,0,3.06-7.85,43,43,0,0,0,1.73-8.09c.37-3.67,1.17-7.27,1.43-11,.13-1.95.42-3.89.67-5.82.29-2.2.68-4.39.93-6.59q.71-6.22,1.3-12.45c.33-3.47.74-6.95.83-10.43C278.26,160.09,278.1,154.79,278.22,149.49Z"/><path class="cls-5" d="M271.17,144.39a19,19,0,0,0-.87-6.07c-.44-1.43-.94-2.84-1.5-4.21-.48-1.17-1.06-2.29-1.63-3.42-.16-.33-.52-.55-.62-.89-.57-1.86-1.93-2.25-3.42-2.42a15.85,15.85,0,0,1-1.58-.08c-3.24-.71-6.51-.23-9.77-.35a45.35,45.35,0,0,0-6.33.43c-3,.31-5.94,0-8.92.35a54.68,54.68,0,0,1-6.31.46c-1.1,0-2.2.07-3.29.15s-2,.21-3,.29l-6.6.5c-1.63.12-3.27.28-4.9.34-2.39.09-4.77.08-7.16.14-1,0-2,.2-3,.17-1.63,0-3.25-.25-4.88-.27-2.74,0-5.49,0-8.23,0-3.13,0-6.25,0-9.38,0-.77,0-1.54.21-2.3.17-3.21-.14-6.43-.33-9.64-.49a18.34,18.34,0,0,0-2.6,0c-3.3.31-6.62,0-9.93.46-2,.27-4,0-6,.07-2.44.11-4.88.36-7.32.55a4,4,0,0,1-1.15,0c-2-.44-3.93-.08-5.89,0-3.41.13-6.81.39-10.22.58-1.33.08-2.67.09-4,.19-.52,0-1,.3-1.55.3-1.83,0-3.65-.05-5.48-.09l-1.59-.06c-1.19,0-2.39-.11-3.58,0-1.63.1-3.26.29-4.88.49q-4,.49-8,1a14.23,14.23,0,0,0-2.54.55c-1.65.55-3.27,1.19-4.9,1.81a.84.84,0,0,0-.47.36,2.19,2.19,0,0,1-1.88,1.49c-.14,0-.34.26-.39.44-.58,1.89-1.17,3.78-1.67,5.7-.27,1-.31,2.15-.5,3.22-.49,2.71-1.19,5.39-1.46,8.12-.38,3.89-.46,7.82-.64,11.74C81,167.76,81,169.38,81,171c0,3.8,0,7.6,0,11.41,0,3.2.11,6.4.16,9.61,0,2.29,0,4.58.12,6.86.16,3.42.4,6.84.65,10.26a31.35,31.35,0,0,0,.62,6c.91,3.28,1.68,6.62,3.42,9.6s3.61,5.84,6.44,7.67a16.71,16.71,0,0,0,3,2c2.17.79,4.3,1.91,6.67,1.78.29,0,.58.07.86.07,2.4,0,4.81,0,7.21-.05s4.51-.3,6.77-.37c1,0,2,.16,3,.2,1.53.06,3.06.11,4.59.12,2.25,0,4.5,0,6.75,0,2.5,0,5,0,7.5,0,3.41.08,6.82.23,10.23.35a23.07,23.07,0,0,0,3.9.11c3.94-.54,7.88-.24,11.82-.29,1.63,0,3.27-.08,4.9-.08,1.05,0,2.1,0,3.16.07,1.82,0,3.64.07,5.46.13s3.75.13,5.63.2a36.49,36.49,0,0,0,5,.11c2.29-.24,4.57,0,6.86-.16s4.81.07,7.21,0c1.87-.06,3.73-.33,5.6-.48.86-.07,1.72,0,2.58-.08,1.29-.09,2.58-.33,3.87-.33a27.78,27.78,0,0,0,6.76-.63,2.49,2.49,0,0,0,1.07-.41,2.39,2.39,0,0,1,2.05-.51,9.84,9.84,0,0,0,1.73.11c2-.12,3.94-.25,5.91-.44A36.59,36.59,0,0,0,241,232c.89-.3,12.14-2,14-3.9,1.34-1.32,2.67-2.65,4-4a1.06,1.06,0,0,1,.51-.28c.74-.14,1.13-.72,1.54-1.36a31.29,31.29,0,0,0,3.06-7.85,43,43,0,0,0,1.73-8.09c.37-3.67,1.17-7.27,1.43-11,.13-1.95.42-3.89.67-5.82.29-2.2.68-4.39.93-6.59q.71-6.22,1.3-12.45c.33-3.47.74-6.95.83-10.43C271.21,155,271,149.69,271.17,144.39Z"/><path class="cls-6" d="M71.88,159.05c0,.83-.46,1-.81,1.33a4.64,4.64,0,0,1-2.67,1.11c-2.12.26-4.19-.23-6.27-.37-1.82-.12-3.63-.53-5.44-.77-1-.12-1.92-.15-2.88-.22a9.58,9.58,0,0,1-1.13-.12,2.3,2.3,0,0,1-1.83-2.13A2.32,2.32,0,0,1,51,157c.05-.18.22-.31.31-.49.66-1.26.66-1.25,1.8-.92a11.36,11.36,0,0,0,1.31.25c3,.49,6,1,9,1.47,2.49.43,5,.9,7.45,1.38A7.09,7.09,0,0,1,71.88,159.05Z"/><path class="cls-6" d="M56.64,205.44c1-1.32,2-2.64,3.05-3.85,1.61-1.78,2.92-3.76,4.84-5.33.89-.73,1.83-1.42,2.72-2.14a1.56,1.56,0,0,1,1.08-.26,7,7,0,0,1,3,.8c.79.36.81.32,1.31,1.21a2.68,2.68,0,0,1-.63.49,17.24,17.24,0,0,0-4.47,2.9c-1.37,1.13-2.71,2.3-4.08,3.43a43.11,43.11,0,0,1-3.5,2.77,2.77,2.77,0,0,1-2.38.32C57.28,205.68,57,205.55,56.64,205.44Z"/><path class="cls-6" d="M301.41,223.84c-.14.11-.17.15-.19.15-1.28-.49-2.64-.51-3.87-1.4a30.5,30.5,0,0,0-3.4-1.88c-.06,0-.12-.1-.17-.09-1.47.24-2.65-1-3.94-1.59-1.65-.77-3.28-1.63-4.9-2.54a18.24,18.24,0,0,1-1.74-1.36,21.64,21.64,0,0,0-2.29-1.6,10.66,10.66,0,0,1-3.21-3.16c-.51-.69-.42-1.66-.6-2.73a5.83,5.83,0,0,1,1.23.35c4.44,2.42,8.89,4.76,13.29,7.33,2.93,1.71,5.76,3.74,8.63,5.63a1.68,1.68,0,0,1,.95,1.92A3,3,0,0,0,301.41,223.84Z"/><path class="cls-6" d="M283.55,185.23c.51,0,.79,0,1.07,0a65.63,65.63,0,0,1,9.34,1.4c3,.81,6,1.44,8.92,2.26,1.47.41,2.88,1.1,4.33,1.63a3.5,3.5,0,0,1,2.13,2.79,10.73,10.73,0,0,1-1.81,0c-1.3-.25-2.58-.62-3.88-.9a12.14,12.14,0,0,0-1.34-.1,7.24,7.24,0,0,1-1.33-.18A71.81,71.81,0,0,0,290,190a28.52,28.52,0,0,1-3.2-.43,14,14,0,0,1-2-1c-.8-.35-.88-1.08-1-1.82C283.76,186.26,283.67,185.85,283.55,185.23Z"/><path class="cls-6" d="M308,154.21c-1,.4-1.79.73-2.6,1a1.57,1.57,0,0,1-.73.07c-1.17-.16-2.35,0-3.54-.26a12,12,0,0,0-3.43.17c-1.93.18-3.86.48-5.8.55a6.86,6.86,0,0,1-2.38-.62,3.89,3.89,0,0,1-1.13-2.47.83.83,0,0,1,.7-.8,25.47,25.47,0,0,1,7.26-.91c2.89.19,5.78.44,8.67.67,1.08.08,2.06.29,2.43,1.6A4.38,4.38,0,0,0,308,154.21Z"/><path class="cls-6" d="M179.48,253.56l4-1.16,1.27,1.21a27.86,27.86,0,0,0-.81,6.86c-.06,2.09,0,4.17-.07,6.26s-.11,3.87-.17,5.81c0,.17,0,.35,0,.52.1,1.69.1,1.69-2.11,2.36a3.09,3.09,0,0,1-1.21-2.24c-.08-.78-.33-1.55-.47-2.32q-.37-2-.69-4a7.51,7.51,0,0,1,0-.94,3.29,3.29,0,0,0-.06-1.14c-.73-1.78-.27-3.59-.46-5.38C178.45,257.43,179.37,255.63,179.48,253.56Z"/><path class="cls-6" d="M87.34,266.38a34,34,0,0,1,3-8c.19-.36.3-.74.51-1.09.86-1.43,1.71-2.86,2.65-4.26a16.77,16.77,0,0,1,1.59-1.78l1.09-1.17a9.36,9.36,0,0,1,3.52.12,1.3,1.3,0,0,1,1.09.89c-.75.79-1.54,1.57-2.26,2.38a37.87,37.87,0,0,0-5.11,7,32.87,32.87,0,0,1-3.06,5.14,1.69,1.69,0,0,1-1.59.72Z"/><path class="cls-6" d="M143.46,256.38c-.79.62-1.17,1.28-.89,2.11a1,1,0,0,1,0,.72c-.66,1.41-.48,2.88-.59,4.33-.07.9-.2,1.8-.3,2.69s-.2,1.65-.3,2.48c-.14,1.16-.73,1.73-2.18,2.06-.39.09-.8.12-1.4.2,0-.52,0-1-.08-1.44-.07-.82-.17-1.65-.22-2.47-.07-1.24,0-2.49-.17-3.72s.08-2.53-.31-3.81a6.54,6.54,0,0,1,.19-2.89c0-.23.48-.5.81-.61a26.8,26.8,0,0,1,2.81-.74C142.38,255,142.68,255.11,143.46,256.38Z"/><path class="cls-6" d="M230.93,273.34a3.52,3.52,0,0,1-.87-.45,3.85,3.85,0,0,1-.82-1.07,59,59,0,0,0-5.43-8.22,18.11,18.11,0,0,1-1.27-2.07c-.57-1-1.09-2.11-1.64-3.17-.19-.36,0-.64.35-.8a20.5,20.5,0,0,1,2.3-.86,1,1,0,0,1,1.4.5,27.81,27.81,0,0,0,1.25,2.54c1.08,1.88,2.24,3.74,3.3,5.62.88,1.56,1.67,3.16,2.51,4.74.34.64.75,1.26,1,1.92.34.83.15,1-1,1.14C231.71,273.18,231.41,273.25,230.93,273.34Z"/><path class="cls-6" d="M265,241.12a13.68,13.68,0,0,1,1.31.5c2.92,1.48,5.8,3,8.76,4.44q3.95,1.91,8,3.61a2.7,2.7,0,0,1,1.76,2.46,32.63,32.63,0,0,1-5.21-1.44c-1.24-.53-2.53-1-3.77-1.55-1.6-.71-3.16-1.48-4.75-2.21a39.15,39.15,0,0,1-5.17-3.12A3.38,3.38,0,0,1,265,241.12Z"/><path class="cls-6" d="M226.19,115.74l-1.22-2c2.25-3.26,3.86-7,6.53-9.93a30.64,30.64,0,0,1,6.68-5.89c1.18-.71,2.47-1.19,3.71-1.79a.83.83,0,0,1,1.07.18l.08.08c.28.4,1.2.24,1,1s-.33,1.58-1.22,1.9A8.77,8.77,0,0,0,241,100.3c-.42.28-.83.56-.76,1.27,0,.23-.33.54-.54.76-1.38,1.41-2.79,2.78-4.14,4.22a23.2,23.2,0,0,0-2.82,4.48c-.7,1.22-1.32,2.49-2,3.73a1.94,1.94,0,0,1-2,1.27Z"/><path class="cls-6" d="M291.79,97.06c-.08.93,0,1.31.61,1.58,1.36.6,1.44,1.62.31,2.67-.52.49-1.07.93-1.59,1.42-3.67,3.37-7.35,6.72-11,10.11-1.74,1.61-3.43,3.28-5.14,4.93-.79.76-3.09.83-3.66,0a14.14,14.14,0,0,1-1-2.31s0-.14,0-.2c1.23-1.29,2.43-2.63,3.72-3.84,2-1.88,4-3.69,6.1-5.49,1.59-1.39,3.22-2.72,4.82-4.09.47-.4.88-.87,1.35-1.26,1.19-1,2.36-2,3.61-2.91A6.79,6.79,0,0,1,291.79,97.06Z"/><path class="cls-6" d="M97.2,119.45c-1-.61-2.06-1.14-3-1.77q-5.79-3.76-11.54-7.58a5.57,5.57,0,0,1-2.45-2.88,2.45,2.45,0,0,1,.48-2.61c.46-.51,1-1.25,1.49-1.32s1,.71,1.51,1.09c3.4,2.55,6.82,5.09,10.21,7.66,2.13,1.61,4.22,3.27,6.32,4.93a6.4,6.4,0,0,1,1,1,1.11,1.11,0,0,1,.31.73c0,.18-.4.35-.62.38C99.64,119.25,98.43,119.34,97.2,119.45Z"/><path class="cls-6" d="M188.95,99c-.24,1.73-.49,3.45-.72,5.18-.37,2.76-.7,5.54-1.12,8.29a4.94,4.94,0,0,1-.72,1.73.9.9,0,0,1-.82.31c-1-.24-2.36-2.35-2.32-3.51.06-1.78.08-3.57.26-5.35a50,50,0,0,1,1.57-9.09c.17-.59.43-1,.91-.87a7.69,7.69,0,0,1,2.39.84c.31.19.4.92.49,1.43a3.52,3.52,0,0,1-.11,1Z"/><path class="cls-6" d="M124.67,96.06c.48-.52,1.09-.24,1.63-.11a4.64,4.64,0,0,1,2,.78,3.61,3.61,0,0,1,.93,1.89c.49,2.42.86,4.87,1.29,7.3.35,2,.71,4,1.06,6a2.87,2.87,0,0,1,.11.74c0,.46.27,1.05-.29,1.34s-.65-.34-1-.58a13.65,13.65,0,0,0-1.55-.9c-.46-1.57-1-3.4-1.53-5.25q-.69-2.49-1.29-5C125.59,100.22,125.14,98.16,124.67,96.06Z"/><path class="cls-7" d="M96.59,156.58a19.26,19.26,0,0,1-.08,3A32,32,0,0,0,96,166.9a13.45,13.45,0,0,1-.05,1.78,41.47,41.47,0,0,0-.12,6.37c.15,2.12,0,4.26.09,6.39.07,2.52.29,5,.27,7.55a92.36,92.36,0,0,0,.33,9.4c.09.93.26,1.86.32,2.79,0,.75-.08,1.51,0,2.26.19,2.54.27,5.12,1.28,7.5,1.51,3.55,3.61,6.58,7.6,7.73.24.07.44.25.68.33a6.89,6.89,0,0,0,1.94.6c2.47.07,4.95,0,7.42,0s5-.07,7.56.08c5.12.3,10.24,0,15.36.07,3.28.08,6.56.29,9.83.41.81,0,1.62,0,2.43,0l8.67-.22c2.09,0,4.17-.09,6.26-.1,1.11,0,2.22.08,3.32.11s2.21,0,3.32.06c1.49,0,3,.1,4.47.1,2.18,0,4.35-.05,6.53-.08,1.87,0,3.74-.07,5.6-.08,1.7,0,3.41,0,5.11,0,.93,0,1.86-.09,2.79-.14l2.3-.11c1.74-.09,3.49-.21,5.23-.27,1.54,0,3.08,0,4.61-.05,1.23-.06,2.46-.27,3.69-.37,1.87-.15,3.74-.31,5.61-.38a38.31,38.31,0,0,0,6.87-.58c2-.42,3.91-.82,5.88-1.19a2.7,2.7,0,0,1,3.28,1.49,1.19,1.19,0,0,1,0,1,2.5,2.5,0,0,1-1.58,1.37,36.09,36.09,0,0,1-7.52,1.36c-1.74.14-3.49.24-5.23.33a9.85,9.85,0,0,1-1.53-.09,2.32,2.32,0,0,0-1.82.4,2.37,2.37,0,0,1-.95.32,27.73,27.73,0,0,1-6,.48c-1.14,0-2.28.18-3.43.25-.76,0-1.53,0-2.29.06-1.65.11-3.31.32-5,.36-2.13.05-4.27-.17-6.39,0s-4.05-.07-6.08.12a36.59,36.59,0,0,1-4.47-.1l-5-.16-4.83-.11c-.93,0-1.86-.07-2.8-.06-1.45,0-2.89,0-4.34.06a95.63,95.63,0,0,0-10.47.2,23.13,23.13,0,0,1-3.45-.09c-3-.1-6-.22-9.07-.29-2.21-.05-4.43,0-6.64,0-2,0-4,0-6,0-1.36,0-2.71,0-4.07-.1-.89,0-1.78-.19-2.67-.17-2,.06-4,.23-6,.28s-4.26,0-6.39,0c-.26,0-.51-.07-.77-.05-2.11.1-4-.79-5.92-1.41a15.18,15.18,0,0,1-2.63-1.54c-2.51-1.44-4.15-3.64-5.72-6a28.56,28.56,0,0,1-3-7.52,21.81,21.81,0,0,1-.56-4.67c-.23-2.67-.44-5.35-.59-8-.1-1.79-.08-3.58-.12-5.37-.05-2.51-.14-5-.16-7.52,0-3,0-6,0-8.93,0-1.27,0-2.54.06-3.8.15-3.06.21-6.14.54-9.18.23-2.14.85-4.24,1.28-6.35.17-.83.21-1.7.44-2.52.43-1.5,1-3,1.47-4.46,0-.14.22-.33.35-.34a1.91,1.91,0,0,0,1.67-1.16.74.74,0,0,1,.41-.28c1.44-.48,2.88-1,4.34-1.41a14,14,0,0,1,2.25-.42q3.55-.43,7.11-.8c1.44-.15,2.88-.3,4.32-.37,1.05-.05,2.11,0,3.17,0l1.41.05c1.62,0,3.23.08,4.85.08.46,0,.91-.2,1.37-.23,1.18-.07,2.36-.08,3.55-.14,3-.14,6-.34,9-.44a22.86,22.86,0,0,1,5.22,0,4,4,0,0,0,1,0c2.16-.14,4.32-.33,6.48-.42,1.77-.07,3.58.17,5.33,0,2.93-.35,5.87-.11,8.8-.34a18.38,18.38,0,0,1,2.31,0c2.85.13,5.69.29,8.54.4.68,0,1.36-.13,2-.13,2.77,0,5.54,0,8.31,0,2.43,0,4.86,0,7.29,0,1.44,0,2.88.19,4.33.22.89,0,1.77-.11,2.66-.13,2.11,0,4.23,0,6.34-.1,1.45,0,2.89-.17,4.34-.26l5.85-.38c.89-.06,1.78-.17,2.67-.22s1.94-.11,2.92-.11a54.69,54.69,0,0,0,5.59-.35c2.64-.27,5.28,0,7.9-.25a45.36,45.36,0,0,1,5.61-.32c2.88.1,5.78-.27,8.65.29.45.09.94,0,1.4.06,1.32.14,2.52.44,3,1.9.09.26.41.44.55.7.5.88,1,1.76,1.45,2.68.5,1.08.95,2.18,1.34,3.3a13.27,13.27,0,0,1,.78,4.75c-.1,4.15.06,8.3-.07,12.44-.08,2.72-.43,5.44-.72,8.16q-.51,4.88-1.12,9.74c-.22,1.72-.56,3.43-.81,5.16-.22,1.51-.47,3-.58,4.55-.22,2.89-.92,5.71-1.24,8.58a30.2,30.2,0,0,1-1.51,6.33,22.75,22.75,0,0,1-2.7,6.13,2.11,2.11,0,0,1-1.36,1.06,1,1,0,0,0-.45.22l-3.55,3.09a3.58,3.58,0,0,1-5.24-.22c-.51-.51-.23-1,.09-1.51q1.62-2.38,3.27-4.73c.71-1,1.43-2,2.16-3a13.77,13.77,0,0,0,1.56-4.15c.09-.28.08-.6.19-.87a37.56,37.56,0,0,0,1.78-7.57c.38-2.14.84-4.26,1.22-6.4.2-1.13.31-2.28.49-3.41.36-2.26.76-4.51,1.09-6.77.28-1.94.5-3.89.7-5.84q.63-6,1.22-12.09c.05-.55,0-1.11,0-1.66.07-3.61.17-7.23.18-10.84a13.82,13.82,0,0,0-.51-2.76,4.69,4.69,0,0,0-.36-1.29c-.48-.88-1.34-.93-2.22-.86-.67.05-1.35.14-2,.15-2.72,0-5.45.08-8.17.08s-5.53-.06-8.3-.08c-.38,0-.77.07-1.15.1-1.14.08-2.28.18-3.43.23-2.55.11-5.11.14-7.65.32-1.65.11-3.27.47-4.92.65a72,72,0,0,1-8.78.48c-2.64,0-5.28.11-7.91.07-2,0-4.08-.24-6.13-.31-1.75-.06-3.5,0-5.25,0-2.73,0-5.45-.14-8.18-.18-2.38,0-4.76,0-7.14,0-1.18,0-2.36-.21-3.53-.2-1.35,0-2.71.14-4.06.22-.13,0-.25.07-.38.07l-6.65.11-3.58.07c-.55,0-1.11.09-1.66.07a24.8,24.8,0,0,0-4.93.39,23.28,23.28,0,0,1-3.83,0c-2.94,0-5.88,0-8.82,0a22.71,22.71,0,0,1-4.57,0,13.71,13.71,0,0,0-2.63.23c-2.29,0-4.59,0-6.88,0a5.73,5.73,0,0,0-1,.14c-.21,0-.42.19-.61.15-2.08-.43-4.15.08-6.22,0a12.84,12.84,0,0,0-3.05.17,1.25,1.25,0,0,1-.51,0c-2.28-.5-4.49,0-6.68.5a9.27,9.27,0,0,0-2,.89c-.07,0-.11.15-.19.17-2.34.73-2.25,2.75-2.48,4.62-.13,1-.28,2.07-.51,3.09C97.08,156.12,96.72,156.4,96.59,156.58Z"/><path class="cls-8" d="M205.43,162.82l-.14.86c-.12.71-.26,1.41-.34,2.12a4.88,4.88,0,0,0,0,1.27c.12.83.36,1.65.45,2.49.12,1.09.14,2.2.21,3.3s.11,2,.17,2.93a4.79,4.79,0,0,1,0,.64c-.14,1.83-.3,3.65-.44,5.48a7.53,7.53,0,0,0,0,1.15q.23,2.93.49,5.85a2.27,2.27,0,0,0,.18,1,4.49,4.49,0,0,1,.47,2.32,17.1,17.1,0,0,0,.21,3.78,9.31,9.31,0,0,1,.17,2.16c.06,1.74.1,3.49.14,5.23a8,8,0,0,1,0,1.15c-.28,2.33-2.19,3.17-4.3,2.15-1.19-.58-1.58-1-1.29-2.43a22.64,22.64,0,0,0-.07-4.27c0-1.05.18-2.11.21-3.16,0-.76-.06-1.53-.1-2.29a7.86,7.86,0,0,1-.09-.89,27.12,27.12,0,0,0-.85-7.47,20.61,20.61,0,0,1-.46-6.33c.16-1.86.06-3.74.14-5.61.11-2.56-.41-5.08-.41-7.63a32.83,32.83,0,0,1,.33-3.41,7.29,7.29,0,0,0,.15-1.38,11.19,11.19,0,0,1,1.11-5.08,2.51,2.51,0,0,1,2.27-1.53c1.32-.18,2.36.5,3.54.68.33.05.68.51.86.86,1.55,3.18,3,6.39,4.61,9.55.93,1.86,2,3.65,3,5.48a49.27,49.27,0,0,1,3.51,6.92,2.07,2.07,0,0,0,.16.35,43.29,43.29,0,0,1,3,5.74c.78,1.92,1.91,3.7,2.81,5.57.7,1.45,1.27,3,1.89,4.45a3.83,3.83,0,0,0,1.58,2.16,1.77,1.77,0,0,0,.15-.59c-.21-1.52-.48-3-.68-4.56-.12-.93-.15-1.87-.22-2.8s-.11-1.7-.19-2.55c-.22-2.21-.48-4.41-.67-6.62a19.64,19.64,0,0,0-1-5.89,6.56,6.56,0,0,1-.37-1.87q-.42-4.65-.77-9.31a14.27,14.27,0,0,1,0-1.91q.21-3.69.46-7.38a1.47,1.47,0,0,1,.17-.74c.15-.21.46-.45.67-.43a11.78,11.78,0,0,1,2.13.4,3.17,3.17,0,0,1,2.33,3.14c.09,1.57,0,3.15,0,4.73a25.64,25.64,0,0,0,.11,3.56,19,19,0,0,0,.71,4.5c.27.7,0,1.59.1,2.38s.39,1.72.59,2.58.43,1.64.54,2.48c.21,1.6.3,3.22.53,4.82.29,2.1.69,4.19,1,6.29.08.58-.14,1.19-.07,1.77.08.75.33,1.48.48,2.23.31,1.54.62,3.08.88,4.63a7.78,7.78,0,0,1,.06,1.91q-.18,2.1-.48,4.18a4.77,4.77,0,0,1-2.39,3.17,2.4,2.4,0,0,1-2.77-.18,2.22,2.22,0,0,0-1.13-.48,3,3,0,0,1-1.82-.84,10.54,10.54,0,0,1-2.67-3.24,71.05,71.05,0,0,1-4.38-9.52,32,32,0,0,0-1.54-3.36c-.48-1-.92-2.11-1.42-3.15s-1.06-2-1.59-3c-.8-1.55-1.57-3.12-2.39-4.66-1-1.86-2.08-3.68-3.08-5.55-.5-.93-.85-1.94-1.33-2.88-.92-1.81-1.89-3.6-2.84-5.4Z"/><path class="cls-8" d="M141.38,203.34a5,5,0,0,0-.55-3.35,1.45,1.45,0,0,1-.19-.87,28,28,0,0,0-.58-5.81,9.16,9.16,0,0,1,0-2.41,15.67,15.67,0,0,0-.47-4.17,17.75,17.75,0,0,1-.08-2.14,11.38,11.38,0,0,0,0-1.15c-.28-2.45-.59-4.9-.89-7.36a2.28,2.28,0,0,1-.1-.63c.5-2.73-.62-5.4-.28-8.12a20.43,20.43,0,0,0,.17-2.3c0-1,0-2-.08-2.94a1.89,1.89,0,0,1,.7-1.81c.77-.6,1.44-1.34,2.24-1.9a8.55,8.55,0,0,1,1.66-.56,24.79,24.79,0,0,1,5.75-1.69,13,13,0,0,1,7,.72,3.27,3.27,0,0,1,1.06.71,21.66,21.66,0,0,1,3.54,4.66,6.61,6.61,0,0,1,.69,4,69.4,69.4,0,0,1-1.22,7.56c-.48,2-.75,4.23-2.24,5.9-.78.87-1.48,1.85-2.8,2a4.37,4.37,0,0,0-1.79.56,5.77,5.77,0,0,1-4.45.56c-2.16-.37-2.69-1.06-2.69-3.28,0-1.17.38-1.61,1.56-1.74a5,5,0,0,1,1.28,0,4.21,4.21,0,0,0,2.46-.54c.57-.27,1.17-.48,1.72-.8a4.16,4.16,0,0,0,1.84-2.82c.44-1.91.74-3.84,1.05-5.78.16-1,.22-1.95.31-2.93a2.85,2.85,0,0,0-2.35-3.38,8.74,8.74,0,0,0-3.54-.22,11.6,11.6,0,0,0-3.12.47c-.85.36-1.78.56-2.61,1a1.64,1.64,0,0,0-.87,1.47c-.06.88-.24,1.76-.26,2.65,0,.71.14,1.43.15,2.15,0,2,0,4.07.05,6.1,0,1.66.15,3.31.15,5a33.43,33.43,0,0,1-.22,4.69,19.38,19.38,0,0,0,.19,4.08c.11,1.83.43,3.64.61,5.46s.19,3.92.51,5.84a38,38,0,0,1,.13,4.58,1.41,1.41,0,0,1-.78,1.59,2.34,2.34,0,0,1-2.32-.1,1.61,1.61,0,0,1-.49-1.1A12.19,12.19,0,0,1,141.38,203.34Z"/><path class="cls-8" d="M173.76,203.33a20.64,20.64,0,0,0,7.48.54c1.82-.12,3.63-.46,5.45-.68a10.17,10.17,0,0,1,1.53,0,1.29,1.29,0,0,1,1.27.69,1,1,0,0,0,.41.48,1.43,1.43,0,0,1,.86,1.55,2.85,2.85,0,0,0,.35,1c-.56,1.34-1.83,1.67-3.06,2s-2.34.44-3.51.65c-.21,0-.47,0-.62.12a4.11,4.11,0,0,1-2.83.52c-1.66,0-3.31-.09-5-.15a2.4,2.4,0,0,1-.88-.1,13.24,13.24,0,0,1-4-2.2,3.33,3.33,0,0,1-1.21-2,1.82,1.82,0,0,0-.23-.73c-1.26-2.09-1.42-4.47-1.71-6.78-.37-3-.52-5.94-.71-8.92-.17-2.55-.33-5.11-.37-7.66,0-1.35.26-2.7.32-4.06s0-2.9,0-4.35c.07-2,.18-4.08.31-6.12a8.12,8.12,0,0,1,.29-1.89A16,16,0,0,1,170.8,160a.79.79,0,0,1,.21-.14,9.47,9.47,0,0,1,5.87-1.69,2.62,2.62,0,0,0,1,0,27.83,27.83,0,0,1,6.94-.94,3.9,3.9,0,0,1,4,3.34,1.12,1.12,0,0,1-.35.88,4.4,4.4,0,0,1-2.66,1.09,35.63,35.63,0,0,0-3.91.34c-1.89.24-3.79.46-5.64.86s-3.39,1-4.07,2.89a2.66,2.66,0,0,0-.23.85c0,3-.42,6,.15,9.06a11.6,11.6,0,0,1-.29,2.78,26.3,26.3,0,0,0-.12,3.44,32.62,32.62,0,0,0,.82,6,3.85,3.85,0,0,1,.07,1.15c-.08,1.36-.19,2.71-.28,4.07-.12,1.94.48,3.78.73,5.67C173.22,200.85,173.51,202,173.76,203.33Z"/><path class="cls-8" d="M108,195.72q-.15-2.92-.3-5.84a4.12,4.12,0,0,1,0-.77,45.88,45.88,0,0,0,0-6.77c0-1.31.16-2.63.21-3.94s0-2.56.06-3.84a25.24,25.24,0,0,1,1-8.31,1.5,1.5,0,0,0,.08-.5,10.44,10.44,0,0,1,2-5.95,17.68,17.68,0,0,1,2.94-2.94,1.21,1.21,0,0,1,1.09-.11,4.73,4.73,0,0,1,2.43,2.16,1.11,1.11,0,0,1-.38,1.66,10.31,10.31,0,0,0-3.46,5.59q-.76,2.89-1.33,5.83a16.87,16.87,0,0,0-.11,2.55,7.46,7.46,0,0,1-.08,1.52,44.83,44.83,0,0,0-.76,6.69c-.24,2.45-.36,4.92-.38,7.39a27.4,27.4,0,0,0,.46,4.32c.17,1.09.48,2.15.72,3.23.45,2,1.84,2.93,4,3.09a6,6,0,0,1,4,1.75,2,2,0,0,1,.32,2.68,1.27,1.27,0,0,1-.63.58,10.16,10.16,0,0,1-3.78.38c-2.26-.21-3.63-1.78-5.17-3a7.59,7.59,0,0,1-2.24-3.81c-.35-1.17-.62-2.37-.93-3.55Z"/><path class="cls-8" d="M130.23,171.5c.26,3.06.59,6.11.77,9.16.12,2,0,4,0,6,0,.76.14,1.52.18,2.29a51.79,51.79,0,0,1,0,10.59,10.37,10.37,0,0,1-1.21,3.31,3.6,3.6,0,0,1-2.36,1.42c-.73.22-1.47.39-2.21.59-1.36.36-2.13-.32-2-1.74a14.21,14.21,0,0,0,.09-1.53,1.76,1.76,0,0,1,1.19-1.79,5.11,5.11,0,0,0,.71-.3,2.73,2.73,0,0,0,1.7-2.48c-.07-2.3-.08-4.6-.1-6.9s0-4.86,0-7.29c0-1.28-.08-2.55-.16-3.83-.23-3.27-.43-6.55-.74-9.81a35.46,35.46,0,0,0-.77-4c-.2-.92-.49-1.81-.65-2.74a1.36,1.36,0,0,0-1-1.18c-.61-.19-1.24-.31-1.84-.51a7,7,0,0,1-1.61-.69,1.36,1.36,0,0,1-.67-1.74,3.62,3.62,0,0,0,0-1.15,1.56,1.56,0,0,1,1.79-1.55,21.58,21.58,0,0,1,2.29.23.7.7,0,0,1,.36.1c2,1.74,4.31,3.21,4.47,6.32a14,14,0,0,0,.88,3.43A16.81,16.81,0,0,1,130.23,171.5Z"/><path class="cls-8" d="M183,185.14c-1.9.21-3.79.44-5.69.62a2.57,2.57,0,0,1-3.05-3c0-.47,0-.94,0-1.41a1.13,1.13,0,0,1,1-1.08,23,23,0,0,0,2.53-.34,36.59,36.59,0,0,1,5.2-.37c.93-.09,1.86-.25,2.79-.35,1.26-.14,2.36,0,2.95,1.41.22.52.53,1,.78,1.55.67,1.43-.06,2.18-1.57,2.51s-3.28.47-4.92.69Z"/><path class="cls-9" d="M227.94,155.26l.36,2.21q.33,2,.66,4.08c.18,1.1.34,2.2.55,3.29a27,27,0,0,0,.65,3,32.26,32.26,0,0,1,1.39,7c.19,2.3.59,4.6.89,6.9.33,2.47.74,4.94,1,7.41a40.52,40.52,0,0,1-.37,10.57,8.12,8.12,0,0,1-1.53,3.77,3.17,3.17,0,0,1-1.17.73c-.09,0-.28-.1-.33-.24a1.11,1.11,0,0,1,0-.59,6.59,6.59,0,0,1,.37-.77c.38-.77.77-1.52,1.12-2.32a4.21,4.21,0,0,0,.23-1.93c0-.59.48-.76.54-1.52.15-2,.14-3.93.11-5.92a51.71,51.71,0,0,0-.55-6c-.35-2.7-.7-5.39-1.14-8.06-.16-1-.19-2-.27-2.93a16.16,16.16,0,0,0-.9-4.26,25.9,25.9,0,0,1-1.23-5.53,15,15,0,0,0-.37-2.1,33.56,33.56,0,0,1-.74-5.82C227.11,155.39,227.29,155.21,227.94,155.26Z"/><path class="cls-9" d="M205.56,156.57a1.3,1.3,0,0,1,1.73.85c1,2,1.85,4,2.9,6a49.64,49.64,0,0,1,2.94,6.2c.53,1.4,1.31,2.69,1.71,4.18a4.43,4.43,0,0,0,.93,1.57,11.3,11.3,0,0,1,2,3.53,19.79,19.79,0,0,0,1,2c.79,1.63,1.64,3.22,2.32,4.91a11.53,11.53,0,0,0,2.23,3c.14.16.37.25.47.43a2.72,2.72,0,0,1,.17.71c-.26,0-.6.16-.76,0a20.9,20.9,0,0,1-2.51-2.19,8.75,8.75,0,0,1-1.09-1.93c-.56-1.09-1.11-2.19-1.66-3.29-.63-1.26-1.22-2.55-1.89-3.78a9.44,9.44,0,0,0-1.29-1.8,6,6,0,0,1-1.55-2.86,9.56,9.56,0,0,0-1.16-2.78,10.35,10.35,0,0,1-.77-1.68c-1-2.78-2.6-5.19-3.83-7.83-.6-1.28-1.17-2.56-1.7-3.87A6,6,0,0,1,205.56,156.57Z"/><path class="cls-9" d="M111.27,174.89a26.12,26.12,0,0,0-.26,4.42c.27,2.4-.28,4.73-.31,7.1,0,1,.07,2.05.08,3.08.05,2.9,0,5.81.86,8.62.38,1.16.69,2.36,2,2.87.19.07.32.29.58.56a12.15,12.15,0,0,1-2.16.66,1.41,1.41,0,0,1-1-.61,12.25,12.25,0,0,1-1.23-2.19,14,14,0,0,1-.91-5.09c-.06-1.63,0-3.27,0-4.91,0-1.31,0-2.61.07-3.92a7.61,7.61,0,0,1,.2-1.38,11.8,11.8,0,0,0,.28-4,8.85,8.85,0,0,1,1-4.61C110.6,175.24,110.91,175.14,111.27,174.89Z"/><path class="cls-9" d="M173.29,206.38c-.1-1.32-.12-1.45.92-1.61,1.39-.21,2.81-.2,4.22-.28.61,0,1.21-.07,1.82-.06,2.45,0,4.9.06,7.34.17a8.63,8.63,0,0,1,2,.59,1,1,0,0,1-.89.81,8,8,0,0,1-1.47.17c-2.72.09-5.44.19-8.16.24-1.37,0-2.74-.06-4.11-.08C174.42,206.33,173.9,206.36,173.29,206.38Z"/><path class="cls-9" d="M172.76,162.59l-.9-.39a.88.88,0,0,1,.66-1.2c1.37-.37,2.74-.78,4.13-1,2.07-.39,4.16-.67,6.25-1,1-.15,2.05-.27,3.08-.33a5.91,5.91,0,0,1,1.47.21.74.74,0,0,1,.59.9.62.62,0,0,1-.75.58,17.49,17.49,0,0,0-4.54.59c-2.31.37-4.64.59-7,.87-.65.08-1.3.16-1.93.29A6.45,6.45,0,0,0,172.76,162.59Z"/><path class="cls-9" d="M129.18,174.84c-1.24-.08-1.75-.58-1.8-1.85,0-1,.11-2,0-2.95a25,25,0,0,1-.57-3.65,10.37,10.37,0,0,0-1.07-4.14,2.46,2.46,0,0,0-1.8-1.59l-.27-.06c-.95-.29-1.41-.74-1.28-1.22a2.09,2.09,0,0,1,1.78-.91,3.37,3.37,0,0,1,2.95,2,23.29,23.29,0,0,1,2,10.19c0,1.07.07,2.15.09,3.22C129.25,174.21,129.2,174.52,129.18,174.84Z"/><path class="cls-9" d="M158.14,177.5c-1.74-.53-2-.77-1.71-2.11.67-2.71.42-5.49.78-8.22a29.67,29.67,0,0,0,.25-3.35,2.55,2.55,0,0,0-.92-2.5c-.78-.54-.62-1,.34-1.28s1.55-.19,2,.87a4.86,4.86,0,0,1,.4,1.76c0,1.35-.16,2.71-.23,4.06-.09,1.63-.15,3.27-.23,4.9,0,.51-.08,1-.13,1.53-.1,1-.19,2-.3,3.06C158.32,176.62,158.23,177,158.14,177.5Z"/><path class="cls-9" d="M188.62,182.66a8.52,8.52,0,0,1-1.4.11,59.42,59.42,0,0,0-7.58.31c-1.21.06-2.42.22-3.63.25-.79,0-.83-.1-.86-1.1,1.08-.14,2.16-.31,3.25-.42,1.79-.18,3.59-.42,5.39-.43a33.32,33.32,0,0,1,4.44.43c.19,0,.34.35.51.54Z"/><path class="cls-9" d="M204.51,194.16a12.59,12.59,0,0,1-.61-6.68,23.62,23.62,0,0,0-.37-6.7c-.13-.74-.31-1.47-.38-2.21a7.62,7.62,0,0,1,.12-1.43c.64-.07.85.19.91.61.53,3.32,1.13,6.62.64,10a51,51,0,0,0-.2,5.47A8.32,8.32,0,0,1,204.51,194.16Z"/><path class="cls-9" d="M204.52,196.13c.06,1.24.77,2.44.47,3.92-1.09-.7-.32-1.4-.39-2S204.54,196.78,204.52,196.13Z"/><path class="cls-10" d="M257.65,166.2l-.25,2.23q-.23,2.05-.46,4.11c-.12,1.11-.26,2.21-.35,3.32a27,27,0,0,0-.17,3,32.26,32.26,0,0,1-.53,7.1c-.43,2.27-.67,4.59-1,6.88-.35,2.47-.61,5-1.07,7.4a40.52,40.52,0,0,1-3.19,10.08,8.12,8.12,0,0,1-2.49,3.22,3.17,3.17,0,0,1-1.33.39c-.1,0-.24-.17-.25-.32a1.11,1.11,0,0,1,.17-.57,6.59,6.59,0,0,1,.57-.64c.57-.64,1.15-1.26,1.7-1.94a4.21,4.21,0,0,0,.74-1.8c.13-.58.66-.6.92-1.32.67-1.84,1.19-3.75,1.69-5.68a51.71,51.71,0,0,0,1.07-5.91c.38-2.69.78-5.38,1.06-8.08.1-1,.34-1.93.53-2.9a16.16,16.16,0,0,0,.28-4.34,25.9,25.9,0,0,1,.3-5.65,15,15,0,0,0,.21-2.12,33.56,33.56,0,0,1,.85-5.81C256.81,166.1,257,166,257.65,166.2Z"/><path class="cls-10" d="M93.25,186a37.46,37.46,0,0,0,.46,5c.61,2.66.49,5.31.84,8,.15,1.15.38,2.29.55,3.43a42.29,42.29,0,0,0,2.1,9.56c.51,1.27,1,2.58,2.21,3,.17.07.32.3.6.58a8.59,8.59,0,0,1-1.79.9c-.27.07-.75-.28-1-.6a16.12,16.12,0,0,1-1.42-2.35,20.23,20.23,0,0,1-1.59-5.62c-.31-1.82-.49-3.66-.73-5.48-.19-1.46-.39-2.92-.55-4.38a10.7,10.7,0,0,1,0-1.56,16.85,16.85,0,0,0-.38-4.54,12.11,12.11,0,0,1,.15-5.23C92.72,186.49,93,186.35,93.25,186Z"/><path class="cls-10" d="M257.58,156.48c-1.24-.08-1.75-.58-1.8-1.85,0-1,.11-2,0-2.95a25,25,0,0,1-.57-3.65,10.37,10.37,0,0,0-1.07-4.14,2.46,2.46,0,0,0-1.8-1.59l-.27-.06c-.95-.29-1.41-.74-1.28-1.22a2.09,2.09,0,0,1,1.78-.91,3.37,3.37,0,0,1,2.95,2,23.29,23.29,0,0,1,2,10.19c0,1.07.07,2.15.09,3.22C257.65,155.85,257.6,156.17,257.58,156.48Z"/></g></g></svg>