<?xml version="1.0" encoding="utf-8"?><!DOCTYPE svg PUBLIC "-//W3C//DTD SVG 1.1//EN" "http://www.w3.org/Graphics/SVG/1.1/DTD/svg11.dtd"><svg width="365" height="200" viewBox="0 0 365 200" xmlns="http://www.w3.org/2000/svg" xmlns:xlink="http://www.w3.org/1999/xlink"><svg width="100" height="100" viewBox="0 0 100 100" id="svg--soc-facebook" x="264.875"><path fill="#3B5998" d="M87.5 0h-75C5.625 0 0 5.625 0 12.5v75C0 94.376 5.625 100 12.5 100h37.932V64.145H38.457V48.523h11.975v-7.826c0-12.063 8.907-21.512 20.278-21.512h11.035v17.638h-9.872c-2.587 0-3.344 1.484-3.344 3.535v8.164h13.215v15.62H68.53V100H87.5c6.877 0 12.5-5.624 12.5-12.5v-75C100 5.625 94.377 0 87.5 0z"/></svg><svg width="100" height="100" viewBox="0 0 100 100" id="svg--soc-instagram" x="264.875" y="100"><path fill="#517FA4" d="M80.232 50c0 16.7-13.54 30.232-30.232 30.232C33.3 80.232 19.768 66.7 19.768 50c0-1.99.197-3.933.563-5.813H0v40.188C0 93.005 6.99 100 15.625 100h68.75C93 100 100 93.005 100 84.375V44.188H79.667c.368 1.88.565 3.823.565 5.812zm4.143-50h-68.75C6.99 0 0 6.997 0 15.625V32.56h25.312C30.788 24.823 39.802 19.767 50 19.767c10.197 0 19.21 5.057 24.686 12.79H100V15.626C100 6.997 93 0 84.375 0zm7.64 19.302c0 1.536-1.256 2.79-2.79 2.79h-8.373c-1.533 0-2.79-1.254-2.79-2.79v-8.37c0-1.537 1.257-2.792 2.79-2.792h8.373c1.534 0 2.79 1.255 2.79 2.79v8.372zM68.604 50c0-10.275-8.33-18.604-18.605-18.604-10.277 0-18.604 8.328-18.604 18.604S39.724 68.604 50 68.604c10.273 0 18.604-8.33 18.604-18.604z"/></svg><svg width="101.42" height="100" viewBox="0 0 101.42 100" id="svg--soc-linkedin" x="123.051" y="100"><g fill="#007BB6"><path d="M22.965 10.843c0 5.99-4.422 10.84-11.698 10.84C4.422 21.684 0 16.834 0 10.844 0 4.708 4.564 0 11.553 0c6.99 0 11.27 4.708 11.412 10.843zM.57 100V30.242h21.684V100H.57zM35.23 52.496c0-8.7-.285-15.976-.568-22.253H53.49l1 9.7h.427c2.854-4.566 9.843-11.27 21.54-11.27 14.265 0 24.964 9.558 24.964 30.098V100H79.736V61.342c0-8.99-3.14-15.12-10.985-15.12-5.99 0-9.556 4.136-11.122 8.13-.572 1.427-.717 3.426-.717 5.422v40.228H35.23V52.496z"/></g></svg><svg width="131.579" height="100" viewBox="0 0 131.579 100" id="svg--soc-stumbleupon" x="133.296"><path fill="#EB4823" d="M72.703 37.23l8.98 4.338 13.545-4.338v-7.854C95.228 13.18 82.018 0 65.79 0 49.56 0 36.353 13.18 36.353 29.377V70.62c0 3.806-3.103 6.9-6.916 6.9s-6.915-3.097-6.915-6.9V53.35H0v17.272C0 86.82 13.206 100 29.437 100c16.233 0 29.437-13.18 29.437-29.38V29.378c0-3.805 3.103-6.9 6.916-6.9s6.913 3.098 6.913 6.9v7.853zm36.35 16.123v17.27c0 3.807-3.1 6.9-6.912 6.9s-6.914-3.097-6.914-6.9V53.007L81.68 57.344l-8.978-4.338v17.616c0 16.2 13.208 29.378 29.438 29.378 16.23 0 29.438-13.18 29.438-29.378v-17.27h-22.524z"/></svg><svg width="123.051" height="100" viewBox="0 0 123.051 100" id="svg--soc-twitter" y="100"><path fill="#2AA9E0" d="M123.05 11.838c-4.524 2.008-9.394 3.364-14.5 3.977 5.214-3.124 9.218-8.07 11.103-13.968-4.88 2.895-10.28 4.993-16.03 6.125C99.017 3.067 92.454 0 85.192 0c-13.94 0-25.245 11.303-25.245 25.244 0 1.98.225 3.906.654 5.754C39.622 29.945 21.02 19.894 8.568 4.62c-2.174 3.73-3.42 8.065-3.42 12.69 0 8.76 4.458 16.486 11.23 21.015-4.137-.13-8.03-1.268-11.434-3.157-.003.104-.003.21-.003.317 0 12.23 8.703 22.435 20.252 24.755-2.117.577-4.348.885-6.65.885-1.627 0-3.208-.158-4.75-.452C17.005 70.703 26.328 78 37.376 78.203 28.736 84.974 17.85 89.01 6.022 89.01c-2.038 0-4.047-.118-6.022-.353C11.173 95.82 24.442 100 38.7 100c46.435 0 71.827-38.467 71.827-71.83 0-1.093-.023-2.182-.072-3.266 4.932-3.558 9.21-8.003 12.596-13.066z"/></svg><svg width="133.296" height="100" viewBox="0 0 133.296 100" id="svg--soc-youtube"><path fill="#b00" d="M131.962 21.58s-1.3-9.805-5.3-14.122c-5.067-5.657-10.75-5.692-13.353-6.013C94.656 0 66.676 0 66.676 0h-.063s-27.98 0-46.63 1.445c-2.604.32-8.28.355-13.354 6.013C2.637 11.775 1.333 21.58 1.333 21.58S0 33.085 0 44.588v10.784c0 11.51 1.333 23.014 1.333 23.014s1.3 9.8 5.297 14.107c5.075 5.66 11.728 5.49 14.696 6.08C31.988 99.662 66.65 100 66.65 100s28.006-.05 46.66-1.48c2.602-.332 8.283-.364 13.353-6.022 3.996-4.308 5.297-14.11 5.297-14.11s1.336-11.505 1.336-23.01V44.596c0-11.512-1.334-23.016-1.334-23.016z"/><path fill="#fff" d="M50.003 25v50L91.67 50z"/></svg></svg>