<?xml version="1.0" encoding="utf-8"?>
<!-- Generator: Adobe Illustrator 21.0.0, SVG Export Plug-In . SVG Version: 6.00 Build 0)  -->
<svg version="1.1" id="Layer_1" xmlns="http://www.w3.org/2000/svg" xmlns:xlink="http://www.w3.org/1999/xlink" x="0px" y="0px"
	 viewBox="0 0 33.1 43.7" style="enable-background:new 0 0 33.1 43.7;" xml:space="preserve">
<style type="text/css">
	.st0{fill:#0C273C;}
</style>
<path class="st0" d="M32.4,16.6c0-8.9-7.1-16.1-15.9-16.1S0.6,7.7,0.6,16.6c0,3.3,1,6.4,2.7,8.9l0,0l9.7,16l0,0c0.7,1.2,2,2,3.5,2
	s2.8-0.8,3.5-2l0,0l9.7-16l0,0C31.5,23,32.4,19.9,32.4,16.6z M16.5,10.6c3.3,0,6,2.7,6,6s-2.7,6-6,6s-6-2.7-6-6
	C10.6,13.3,13.3,10.6,16.5,10.6z"/>
</svg>
