<?xml version="1.0" encoding="utf-8"?>
<!-- Generator: Adobe Illustrator 21.0.0, SVG Export Plug-In . SVG Version: 6.00 Build 0)  -->
<svg version="1.1" xmlns="http://www.w3.org/2000/svg" xmlns:xlink="http://www.w3.org/1999/xlink" x="0px" y="0px"
	 viewBox="0 0 33.1 43.7" style="enable-background:new 0 0 33.1 43.7;" xml:space="preserve">
<style type="text/css">
	.st0{display:none;}
	.st1{display:inline;fill:#0C273C;}
	.st2{fill-rule:evenodd;clip-rule:evenodd;fill:#0C273C;}
</style>
<g id="Layer_1" class="st0">
	<path class="st1" d="M32.4,16.6c0-8.9-7.1-16.1-15.9-16.1S0.6,7.7,0.6,16.6c0,3.3,1,6.4,2.7,8.9l0,0l9.7,16l0,0c0.7,1.2,2,2,3.5,2
		s2.8-0.8,3.5-2l0,0l9.7-16l0,0C31.5,23,32.4,19.9,32.4,16.6z M16.5,10.6c3.3,0,6,2.7,6,6s-2.7,6-6,6s-6-2.7-6-6
		C10.6,13.3,13.3,10.6,16.5,10.6z"/>
</g>
<g id="Layer_2">
	<g>
		<g>
			<path class="st2" d="M31.5,23.4c0-2.4-2-4.6-5.1-6.1c-2.5,2.2-5.9,3.6-9.5,3.6s-7-1.4-9.5-3.6c-3.1,1.5-5.1,3.6-5.1,6.1
				c0,0.1,0,0.2,0,0.4c0,0.1,0,0.1,0,0.2v8.2c0,1.2,1.8,7.1,3.9,7.1c0,0,5.2,4.3,10.5,4.3c5.5,0,11-4.3,11-4.3
				c2.2,0,3.9-5.8,3.9-7.1v-8.2c0-0.1,0-0.1,0-0.2C31.5,23.6,31.5,23.5,31.5,23.4z M16.8,17.5c4.8,0,8.7-3.9,8.7-8.7
				s-3.9-8.7-8.7-8.7c-4.8,0-8.7,3.9-8.7,8.7S12,17.5,16.8,17.5z"/>
		</g>
	</g>
</g>
</svg>
